<mxfile host="app.diagrams.net">
  <diagram name="Vibration Lubrication Detection Process">
    <mxGraphModel dx="928" dy="440" grid="1" gridSize="10" guides="1" tooltips="1" arrows="1" fold="1" page="1" pageScale="1" pageWidth="827" pageHeight="1169" math="0" shadow="0">
      <root>
        <mxCell id="0" />
        <mxCell id="1" parent="0" />
        <mxCell id="2" value="预处理模块" style="rounded=1;whiteSpace=wrap;html=1;fillColor=#F4CCCC;" vertex="1" connectable="0" parent="1">
          <mxGeometry x="0" y="0" width="200" height="140" as="geometry" />
        </mxCell>
        <mxCell id="3" value="获取原始数据" style="rounded=1;whiteSpace=wrap;html=1;fillColor=#FFFFFF;" vertex="1" connectable="0" parent="1">
          <mxGeometry x="0" y="0.2" width="200" height="40" as="geometry" />
        </mxCell>
        <mxCell id="4" value="提取具有代表性特征值" style="rounded=1;whiteSpace=wrap;html=1;fillColor=#FFFFFF;" vertex="1" connectable="0" parent="1">
          <mxGeometry x="0" y="0.4" width="200" height="40" as="geometry" />
        </mxCell>
        <mxCell id="5" value="将特征值存到数据库" style="rounded=1;whiteSpace=wrap;html=1;fillColor=#FFFFFF;" vertex="1" connectable="0" parent="1">
          <mxGeometry x="0" y="0.6" width="200" height="40" as="geometry" />
        </mxCell>
        <mxCell id="6" value="获取最近一段时间特征值" style="rounded=1;whiteSpace=wrap;html=1;fillColor=#FFFFFF;" vertex="1" connectable="0" parent="1">
          <mxGeometry x="0" y="0.8" width="200" height="40" as="geometry" />
        </mxCell>
        <mxCell id="7" value="诊断模块" style="rounded=1;whiteSpace=wrap;html=1;fillColor=#F4CCCC;" vertex="1" connectable="0" parent="1">
          <mxGeometry x="0.6" y="0" width="200" height="140" as="geometry" />
        </mxCell>
        <mxCell id="8" value="根据输入的特征值进行评估" style="rounded=1;whiteSpace=wrap;html=1;fillColor=#FFFFFF;" vertex="1" connectable="0" parent="1">
          <mxGeometry x="0.6" y="0.2" width="200" height="40" as="geometry" />
        </mxCell>
        <mxCell id="9" value="根据结果决定是否发出加油指令" style="rounded=1;whiteSpace=wrap;html=1;fillColor=#FFFFFF;" vertex="1" connectable="0" parent="1">
          <mxGeometry x="0.6" y="0.4" width="200" height="40" as="geometry" />
        </mxCell>
        <mxCell id="10" value="评估加油效果" style="rounded=1;whiteSpace=wrap;html=1;fillColor=#FFFFFF;" vertex="1" connectable="0" parent="1">
          <mxGeometry x="0.6" y="0.6" width="200" height="40" as="geometry" />
        </mxCell>
        <mxCell id="11" value="统计模块" style="rounded=1;whiteSpace=wrap;html=1;fillColor=#F4CCCC;" vertex="1" connectable="0" parent="1">
          <mxGeometry x="0.6" y="0.8" width="200" height="140" as="geometry" />
        </mxCell>
        <mxCell id="12" value="定期统计设备数据" style="rounded=1;whiteSpace=wrap;html=1;fillColor=#FFFFFF;" vertex="1" connectable="0" parent="1">
          <mxGeometry x="0.6" y="0.6" width="200" height="40" as="geometry" />
        </mxCell>
        <mxCell id="13" value="持续优化" style="rounded=1;whiteSpace=wrap;html=1;fillColor=#FFFFFF;" vertex="1" connectable="0" parent="1">
          <mxGeometry x="0.6" y="0.8" width="200" height="40" as="geometry" />
        </mxCell>
        <mxCell id="14" style="edgeStyle=orthogonalEdgeStyle;rounded=0;orthogonalLoop=1;jettySize=auto;html=1;exitX=0.5;exitY=1;exitDx=0;exitDy=0" edge="1" parent="1" source="2" target="3">
          <mxGeometry relative="1" as="geometry" />
        </mxCell>
        <mxCell id="15" style="edgeStyle=orthogonalEdgeStyle;rounded=0;orthogonalLoop=1;jettySize=auto;html=1;exitX=0.5;exitY=1;exitDx=0;exitDy=0" edge="1" parent="1" source="3" target="4">
          <mxGeometry relative="1" as="geometry" />
        </mxCell>
        <mxCell id="16" style="edgeStyle=orthogonalEdgeStyle;rounded=0;orthogonalLoop=1;jettySize=auto;html=1;exitX=0.5;exitY=1;exitDx=0;exitDy=0" edge="1" parent="1" source="4" target="5">
          <mxGeometry relative="1" as="geometry" />
        </mxCell>
        <mxCell id="17" style="edgeStyle=orthogonalEdgeStyle;rounded=0;orthogonalLoop=1;jettySize=auto;html=1;exitX=0.5;exitY=1;exitDx=0;exitDy=0" edge="1" parent="1" source="5" target="6">
          <mxGeometry relative="1" as="geometry" />
        </mxCell>
        <mxCell id="18" style="edgeStyle=orthogonalEdgeStyle;rounded=0;orthogonalLoop=1;jettySize=auto;html=1;exitX=0.5;exitY=1;exitDx=0;exitDy=0" edge="1" parent="1" source="7" target="8">
          <mxGeometry relative="1" as="geometry" />
        </mxCell>
        <mxCell id="19" style="edgeStyle=orthogonalEdgeStyle;rounded=0;orthogonalLoop=1;jettySize=auto;html=1;exitX=0.5;exitY=1;exitDx=0;exitDy=0" edge="1" parent="1" source="8" target="9">
          <mxGeometry relative="1" as="geometry" />
        </mxCell>
        <mxCell id="20" style="edgeStyle=orthogonalEdgeStyle;rounded=0;orthogonalLoop=1;jettySize=auto;html=1;exitX=0.5;exitY=1;exitDx=0;exitDy=0" edge="1" parent="1" source="9" target="10">
          <mxGeometry relative="1" as="geometry" />
        </mxCell>
        <mxCell id="21" style="edgeStyle=orthogonalEdgeStyle;rounded=0;orthogonalLoop=1;jettySize=auto;html=1;exitX=0.5;exitY=1;exitDx=0;exitDy=0" edge="1" parent="1" source="11" target="12">
          <mxGeometry relative="1" as="geometry" />
        </mxCell>
        <mxCell id="22" style="edgeStyle=orthogonalEdgeStyle;rounded=0;orthogonalLoop=1;jettySize=auto;html=1;exitX=0.5;exitY=1;exitDx=0;exitDy=0" edge="1" parent="1" source="12" target="13">
          <mxGeometry relative="1" as="geometry" />
        </mxCell>
      </root>
    </mxGraphModel>
  </diagram>
</mxfile>
